<svg width="128" height="128" viewBox="0 0 128 128" fill="none" xmlns="http://www.w3.org/2000/svg" role="img" aria-labelledby="title desc">
  <title id="title">Fabrication BOM Tool logo</title>
  <desc id="desc">Blue gradient square with a white segmented elbow pipe icon.</desc>
  <defs>
    <radialGradient id="bgGlow" cx="0" cy="0" r="1" gradientUnits="userSpaceOnUse" gradientTransform="translate(40 30) rotate(43.3634) scale(131.629)">
      <stop stop-color="#58A3FF"/>
      <stop offset="0.62" stop-color="#2B74EE"/>
      <stop offset="1" stop-color="#1758DB"/>
    </radialGradient>
    <filter id="softShadow" x="19" y="23" width="88" height="81" filterUnits="userSpaceOnUse" color-interpolation-filters="sRGB">
      <feDropShadow dx="0" dy="2" stdDeviation="2" flood-color="#0C46AA" flood-opacity="0.16"/>
    </filter>
  </defs>

  <rect width="128" height="128" rx="10" fill="url(#bgGlow)"/>

  <g filter="url(#softShadow)" fill="#F7F7F5">
    <rect x="29" y="28" width="34" height="13" rx="1"/>
    <path d="M53.944 39.5C53.1493 39.5 52.3871 39.8157 51.8251 40.3777L31.8777 60.3251C31.3157 60.8871 31 61.6493 31 62.444V77C31 78.1046 31.8954 79 33 79H61.331C62.0765 79 62.7914 78.705 63.3194 78.179L72.0904 69.439C73.3339 68.1999 73.3458 66.191 72.1171 64.9373L64.1722 56.8291C63.6109 56.2562 63.3662 55.4549 63.511 54.6679L65.8615 41.8901C66.0511 40.8586 65.2591 39.9054 64.2103 39.5112C64.1236 39.5038 64.036 39.5 63.948 39.5H53.944Z"/>
    <path d="M63.877 39.5C63.0823 39.5 62.3201 39.8157 61.7581 40.3777L52.3777 49.7581C51.8157 50.3201 51.5 51.0823 51.5 51.877V55.7044C51.5 56.4991 51.8157 57.2613 52.3777 57.8233L69.1767 74.6223C69.7387 75.1843 70.5009 75.5 71.2956 75.5H75.123C75.9177 75.5 76.6799 75.1843 77.2419 74.6223L91.6223 60.2419C92.1843 59.6799 92.5 58.9177 92.5 58.123V54.2956C92.5 53.5009 92.1843 52.7387 91.6223 52.1767L78.9456 39.5H63.877Z"/>
    <rect x="29" y="79" width="34" height="13" rx="1"/>
  </g>
</svg>
