<svg width="128" height="128" viewBox="0 0 128 128" fill="none" xmlns="http://www.w3.org/2000/svg" role="img" aria-labelledby="title desc">
  <title id="title">Fabrication BOM Tool logo</title>
  <desc id="desc">Blue rounded square with a white segmented elbow pipe icon.</desc>
  <defs>
    <linearGradient id="bg" x1="14" y1="12" x2="114" y2="116" gradientUnits="userSpaceOnUse">
      <stop stop-color="#62A7FF"/>
      <stop offset="1" stop-color="#0A5BDE"/>
    </linearGradient>
    <filter id="shadow" x="21" y="24" width="86" height="78" filterUnits="userSpaceOnUse" color-interpolation-filters="sRGB">
      <feDropShadow dx="0" dy="2" stdDeviation="2.5" flood-color="#083C90" flood-opacity="0.2"/>
    </filter>
  </defs>

  <rect width="128" height="128" rx="18" fill="url(#bg)"/>

  <g filter="url(#shadow)" fill="#F5F7FB">
    <rect x="29" y="30" width="34" height="14" rx="2"/>
    <path d="M29 59C29 57.3431 30.3431 56 32 56H61.3726C62.1682 56 62.9313 56.3161 63.494 56.8787L72.1213 65.506C73.2929 66.6775 73.2929 68.577 72.1213 69.7486L62.494 79.3759C61.9313 79.9385 61.1682 80.2546 60.3726 80.2546H32C30.3431 80.2546 29 78.9115 29 77.2546V59Z"/>
    <path d="M77.364 40.3934C76.8013 39.8308 76.0383 39.5147 75.2426 39.5147H61.5147L61.8787 39.8787C63.0503 41.0502 63.0503 42.9497 61.8787 44.1213L51.4853 54.5147C50.3137 55.6863 50.3137 57.5858 51.4853 58.7574L69.2426 76.5147C70.4142 77.6863 72.3137 77.6863 73.4853 76.5147L91.2426 58.7574C92.4142 57.5858 92.4142 55.6863 91.2426 54.5147L77.364 40.3934Z"/>
    <rect x="29" y="82" width="34" height="14" rx="2"/>
  </g>
</svg>
