<svg width="128" height="128" viewBox="0 0 128 128" fill="none" xmlns="http://www.w3.org/2000/svg" role="img" aria-labelledby="title desc">
  <title id="title">Fabrication BOM Tool logo</title>
  <desc id="desc">Blue rounded square with two white pipe elbow shapes.</desc>
  <defs>
    <linearGradient id="bg" x1="14" y1="10" x2="114" y2="118" gradientUnits="userSpaceOnUse">
      <stop stop-color="#5C9EF6"/>
      <stop offset="0.62" stop-color="#2F74D9"/>
      <stop offset="1" stop-color="#225FC2"/>
    </linearGradient>
  </defs>

  <rect x="4" y="4" width="120" height="120" rx="20" fill="url(#bg)"/>
  <path d="M14 22C37 22 51 22 76 22C70 29 63 35 54 39C42 45 28 49 14 49V22Z" fill="white" opacity="0.25"/>
  <rect x="4.75" y="4.75" width="118.5" height="118.5" rx="19.25" stroke="white" opacity="0.2"/>

  <g opacity="0.98">
    <path d="M24 72C24 66.4772 28.4772 62 34 62H50C55.5228 62 60 66.4772 60 72V74H45C39.4772 74 35 78.4772 35 84V98H34C28.4772 98 24 93.5228 24 88V72Z" fill="#EEF3F8"/>
    <path d="M42 84C42 78.4772 46.4772 74 52 74H66V92C66 97.5228 61.5228 102 56 102H42V84Z" fill="#F7FAFD"/>
    <path d="M54 44C54 38.4772 58.4772 34 64 34H94V52C94 57.5228 89.5228 62 84 62H70C64.4772 62 60 66.4772 60 72V74H54V44Z" fill="#EEF3F8"/>
  </g>
</svg>
