<svg xmlns="http://www.w3.org/2000/svg" viewBox="0 0 128 128" role="img" aria-labelledby="title desc">
  <title id="title">Fabrication BOM Tool logo</title>
  <desc id="desc">Blue rounded square with layered sheets and FBT lettering.</desc>
  <defs>
    <linearGradient id="g" x1="0" y1="0" x2="1" y2="1">
      <stop offset="0%" stop-color="#67A9FF"/>
      <stop offset="100%" stop-color="#185FA5"/>
    </linearGradient>
  </defs>
  <rect x="8" y="8" width="112" height="112" rx="24" fill="url(#g)"/>
  <path d="M36 34h40a10 10 0 0 1 10 10v34a10 10 0 0 1-10 10H36a10 10 0 0 1-10-10V44a10 10 0 0 1 10-10Z" fill="#fff" fill-opacity=".16"/>
  <path d="M48 30h44a8 8 0 0 1 8 8v40a8 8 0 0 1-8 8H48a8 8 0 0 1-8-8V38a8 8 0 0 1 8-8Z" fill="#fff" fill-opacity=".92"/>
  <path d="M56 48h36M56 60h36M56 72h24" stroke="#185FA5" stroke-width="6" stroke-linecap="round"/>
  <path d="M30 86l22-14 16 10 28-20" fill="none" stroke="#EAF3DE" stroke-width="8" stroke-linecap="round" stroke-linejoin="round"/>
  <text x="64" y="113" text-anchor="middle" font-family="Segoe UI, Arial, sans-serif" font-size="20" font-weight="700" fill="#ffffff">FBT</text>
</svg>
